# Made in Blockbench 4.10.4
mtllib riot_helmet.mtl

o beveled_cuboid
v 0.375 0.8125 0.375
v 0.375 0.8125 -0.375
v -0.375 0.8125 0.375
v -0.375 0.8125 -0.375
v 0.5625 0.3125 0.5625
v 0.5625 0.3125 -0.5749999999999997
v -0.5625 0.3125 0.5625
v -0.5625 0.3125 -0.5749999999999997
v -0.5 0.5 0.375
v -0.5 0.6875 0.375
v -0.5 0.5 -0.375
v -0.5 0.6875 -0.375
v 0.5 0.5 0.375
v 0.5 0.6875 0.375
v 0.5 0.5 -0.375
v 0.5 0.6875 -0.375
v 0.375 0.5 -0.5
v 0.375 0.6875 -0.5
v -0.375 0.5 -0.5
v -0.375 0.6875 -0.5
v 0.375 0.5 0.5
v 0.375 0.6875 0.5
v -0.375 0.5 0.5
v -0.375 0.6875 0.5
v 0.375 0.8125 0
v -0.375 0.8125 -0.00032809143974332766
vt 0.5375 1
vt 0.35 1
vt 0.35 0.953125
vt 0.5375 0.953125
vt 0.540625 0.828125
vt 0.540625 0.875
vt 0.353125 0.875
vt 0.353125 0.828125
vt 0 0.71875
vt 0.28125 0.71875
vt 0.28125 1
vt 0 1
vt 0.4375 0.578125
vt 0.4375 0.625
vt 0.25 0.625
vt 0.25 0.578125
vt 0.484375 0.75
vt 0.296875 0.75
vt 0.296875 0.703125
vt 0.484375 0.703125
vt 0.6953125 0.58080625
vt 0.6953125 0.625
vt 0.5078125 0.625
vt 0.5078125 0.58080625
vt 0.2265625 0.5
vt 0.0390625 0.5
vt 0.0390625 0.45580624999999997
vt 0.2265625 0.45580624999999997
vt 0.35 0.953125
vt 0.303125 0.903715625
vt 0.5875 0.903715625
vt 0.5375 0.953125
vt 0.303125 0.778715625
vt 0.5875 0.778715625
vt 0.540625 0.828125
vt 0.353125 0.828125
vt 0.203125 0.528715625
vt 0.484375 0.528715625
vt 0.4375 0.578125
vt 0.25 0.578125
vt 0.296875 0.703125
vt 0.25 0.6526390625
vt 0.53125 0.6526390625
vt 0.484375 0.703125
vt 0.546875 0.640625
vt 0.59375 0.640625
vt 0.59375 0.6875
vt 0.546875 0.6875
vt 0.0625 0.4375
vt 0.0625 0.390625
vt 0.109375 0.390625
vt 0.109375 0.4375
vt 0.125 0.4375
vt 0.125 0.390625
vt 0.171875 0.390625
vt 0.171875 0.4375
vt 0.1875 0.390625
vt 0.234375 0.390625
vt 0.234375 0.4375
vt 0.1875 0.4375
vt 0.5519468613233532 0.43189235590565456
vt 0.59375 0.485661759667116
vt 0.5519468613233532 0.5
vt 0 0.36939235590565456
vt 0.041803138676646784 0.423161759667116
vt 3.469446951953614e-17 0.4375
vt 0.484375 0.4297046734166977
vt 0.525842794099397 0.48471897936679254
vt 0.484375 0.5
vt 0.5234546734166977 0.708532205900603
vt 0.59375 0.708532205900603
vt 0.5784689793667925 0.75
vt 0.6953125 0.625
vt 0.6953125 0.5808057933340576
vt 0.7335855420143307 0.6029024400034457
vt 0.5078125 0.625
vt 0.4695394579856694 0.6029024400034457
vt 0.5078125 0.5808057933340576
vt 0.0390625 0.5
vt 0.0007894579856693729 0.4779024400034457
vt 0.03906249999999997 0.4558057933340576
vt 0.2265625 0.5
vt 0.2265625 0.4558057933340576
vt 0.2648355420143306 0.4779024400034457
vt 0.375 0.5
vt 0.28125 0.5
vt 0.28125 0.45580624999999997
vt 0.59366875 0.5625
vt 0.5 0.5625
vt 0.5 0.51830625
vt 0 0.515625
vt 0.1875 0.515625
vt 0.1875 0.609375
vt 0 0.60945625
vt 0 0.60945625
vt 0.1875 0.609375
vt 0.1875 0.703125
vt 0 0.703125
vt 0.6875 0.51830625
vt 0.6875 0.5625
vt 0.59366875 0.5625
vt 0.59366875 0.5625
vt 0.5 0.51830625
vt 0.6875 0.51830625
vt 0.46875 0.45580624999999997
vt 0.46875 0.5
vt 0.375 0.5
vt 0.375 0.5
vt 0.28125 0.45580624999999997
vt 0.46875 0.45580624999999997
vn 1 0 0
vn -1 0 0
vn 0 -1 0
vn 0 0 1
vn 0 0 -1
vn 0 0.7071067811865476 0.7071067811865476
vn 0 0.7071067811865476 -0.7071067811865476
vn 0.9486832980505139 0.31622776601683794 0
vn -0.9486832980505139 0.31622776601683794 0
vn 0 0.316227766016838 0.948683298050514
vn 0 0.37139067635410256 -0.9284766908852597
vn 0.7071067811865476 0 -0.7071067811865476
vn 0.7071067811865476 0 0.7071067811865476
vn -0.7071067811865476 0 -0.7071067811865476
vn -0.7071067811865476 0 0.7071067811865476
vn 0.5144957554275266 0.6859943405700354 0.5144957554275266
vn -0.5144957554275266 0.6859943405700354 0.5144957554275266
vn 0.5025189076296063 0.7035264706814481 -0.5025189076296063
vn -0.5025189076296063 0.7035264706814481 -0.5025189076296063
vn 0.5773502691896258 0.5773502691896258 0.5773502691896258
vn -0.5773502691896258 0.5773502691896258 0.5773502691896258
vn 0.5773502691896258 0.5773502691896258 -0.5773502691896258
vn -0.5773502691896258 0.5773502691896258 -0.5773502691896258
vn 0.7071067811865476 0.7071067811865476 0
vn -0.7071067811865476 0.7071067811865476 0
vn 0 1 0
vn 0 1 0
vn -0.7071067811865476 0.7071067811865476 0
vn -0.7071067811865476 0.7071067811865476 0
vn 0.7071067811865476 0.7071067811865476 0
vn 0.7071067811865476 0.7071067811865476 0
usemtl m_af0416a4-c5b2-6060-2df4-37bcd355ced0
f 16/1/1 14/2/1 13/3/1 15/4/1
f 9/5/2 10/6/2 12/7/2 11/8/2
f 8/9/3 6/10/3 5/11/3 7/12/3
f 21/13/4 22/14/4 24/15/4 23/16/4
f 20/17/5 18/18/5 17/19/5 19/20/5
f 22/21/6 1/22/6 3/23/6 24/24/6
f 4/25/7 2/26/7 18/27/7 20/28/7
f 13/29/8 5/30/8 6/31/8 15/32/8
f 8/33/9 7/34/9 9/35/9 11/36/9
f 7/37/10 5/38/10 21/39/10 23/40/10
f 17/41/11 6/42/11 8/43/11 19/44/11
f 15/45/12 17/46/12 18/47/12 16/48/12
f 22/49/13 21/50/13 13/51/13 14/52/13
f 20/53/14 19/54/14 11/55/14 12/56/14
f 9/57/15 23/58/15 24/59/15 10/60/15
f 5/61/16 13/62/16 21/63/16
f 7/64/17 23/65/17 9/66/17
f 6/67/18 17/68/18 15/69/18
f 8/70/19 11/71/19 19/72/19
f 1/73/20 22/74/20 14/75/20
f 3/76/21 10/77/21 24/78/21
f 2/79/22 16/80/22 18/81/22
f 4/82/23 20/83/23 12/84/23
f 25/85/24 1/86/24 14/87/24
f 26/88/25 4/89/25 12/90/25
f 3/91/26 1/92/26 25/93/26 26/94/26
f 26/95/27 25/96/27 2/97/27 4/98/27
f 10/99/28 3/100/28 26/101/28
f 26/102/29 12/103/29 10/104/29
f 16/105/30 2/106/30 25/107/30
f 25/108/31 14/109/31 16/110/31
usemtl visorlolololololololol
f 16/1/1 14/2/1 13/3/1 15/4/1
f 9/5/2 10/6/2 12/7/2 11/8/2
f 8/9/3 6/10/3 5/11/3 7/12/3
f 21/13/4 22/14/4 24/15/4 23/16/4
f 20/17/5 18/18/5 17/19/5 19/20/5
f 22/21/6 1/22/6 3/23/6 24/24/6
f 4/25/7 2/26/7 18/27/7 20/28/7
f 13/29/8 5/30/8 6/31/8 15/32/8
f 8/33/9 7/34/9 9/35/9 11/36/9
f 7/37/10 5/38/10 21/39/10 23/40/10
f 17/41/11 6/42/11 8/43/11 19/44/11
f 15/45/12 17/46/12 18/47/12 16/48/12
f 22/49/13 21/50/13 13/51/13 14/52/13
f 20/53/14 19/54/14 11/55/14 12/56/14
f 9/57/15 23/58/15 24/59/15 10/60/15
f 5/61/16 13/62/16 21/63/16
f 7/64/17 23/65/17 9/66/17
f 6/67/18 17/68/18 15/69/18
f 8/70/19 11/71/19 19/72/19
f 1/73/20 22/74/20 14/75/20
f 3/76/21 10/77/21 24/78/21
f 2/79/22 16/80/22 18/81/22
f 4/82/23 20/83/23 12/84/23
f 25/85/24 1/86/24 14/87/24
f 26/88/25 4/89/25 12/90/25
f 3/91/26 1/92/26 25/93/26 26/94/26
f 26/95/27 25/96/27 2/97/27 4/98/27
f 10/99/28 3/100/28 26/101/28
f 26/102/29 12/103/29 10/104/29
f 16/105/30 2/106/30 25/107/30
f 25/108/31 14/109/31 16/110/31